<svg xmlns="http://www.w3.org/2000/svg" viewBox="0 0 200 200" width="100%" height="100%">
  <g fill="#D84B8E">
    
    <path d="M100,10A90,90 0 1,0 190,100A90.1,90.1 0 0,0 100,10ZM100,175A75,75 0 1,1 175,100A75.08,75.08 0 0,1 100,175Z" />
    
    <path d="M100,30 
             C145,30 145,85 100,100 
             C55,115 55,170 100,170 
             C120,170 135,155 145,135 
             C130,145 115,150 100,150 
             C70,150 70,120 100,105 
             C130,90 130,50 100,50 
             C80,50 65,65 55,85 
             C70,75 85,30 100,30 Z" />
             
  </g>
</svg>